<?xml version="1.0" encoding="utf-8"?>
<!-- Generator: Adobe Illustrator 28.2.0, SVG Export Plug-In . SVG Version: 6.00 Build 0)  -->
<svg version="1.1" id="Layer_1" xmlns="http://www.w3.org/2000/svg" xmlns:xlink="http://www.w3.org/1999/xlink" x="0px" y="0px"
	 viewBox="0 0 1042 1042" style="enable-background:new 0 0 1042 1042;" xml:space="preserve">
<style type="text/css">
	.st0{fill:#FFB600;}
</style>
<g>
	<g id="XMLID_00000050622834342001327250000016627595965237176974_">
		<g>
			<path class="st0" d="M214.4,518.8c-3.7-0.2-7.2-1-10.4-2.9c-0.1-0.1-0.2-0.3-0.1-0.4c0.1-0.2,0.2-0.2,0.4-0.2
				c1.9,0.5,3.7,0.8,5.5,0.9c17.9,0.9,32-5.8,42.3-20.3c6.8-9.5,8.8-19.7,5.9-30.8c-0.9-3.7-2.6-6.7-5.1-9.1
				c-0.6-0.6-0.1-1.7,0.8-1.6c11.4,1.7,17.2,9.6,17.3,21.3c0.1,11.1-4.4,20.5-13.5,28c-6.7,5.7-13.7,9.4-20.9,11.3l-0.1,0
				C229.4,517,221.6,519.1,214.4,518.8z"/>
			<path class="st0" d="M452.6,635.2c1.8,0.2,3.9-0.4,5.6-0.9c0.7-0.2,1.3-0.4,1.9-0.5c0.4-0.1,0.8-0.1,1.1-0.1
				c0.5,0.1,0.8,0.8,0.5,1.3c-1.1,1.4-2.1,2.1-3,2.2c-3.7,0.3-8.4,0.9-14.1,2c-4.9,0.9-9.6,1.4-14.4,1.7c-5,0.3-10,0.3-15.3,0.4
				c-2.8,0-5.6,0.1-8.6,0.1c-13,0.3-25.8,1.8-38.3,4.6c-15,3.3-28.3,10.1-35.9,24c-0.2,0.3-0.3,0.7-0.4,1l-2.3,8.1
				c-0.1,0.6-0.7,1-1.3,0.9c-0.5-0.1-1-0.5-1.1-1c0-0.1,0-0.1,0-0.2l0.4-16c0-0.8,0.2-1.6,0.5-2.4c13.5-34.5,57.9-34.4,87.8-29.9
				C430.4,632.7,442.7,634.3,452.6,635.2z"/>
			<path class="st0" d="M800.2,468.9c4.1,4.6,3.4,11.9-1.6,16.3c-5,4.4-12.3,4.4-16.4-0.2c-4-4.5-3.3-11.8,1.7-16.3
				C788.8,464.3,796.2,464.4,800.2,468.9z"/>
			<path class="st0" d="M452.1,484.6c-2.3-5-2.6-10.7-1.1-17.2c4.6-18.7,16.2-31.1,34.9-37.4c6.6-2.2,11-3.8,17.8-4.5
				c12.3-1.3,25.5-1.3,39.8,0c4.5,0.4,8.3,0.9,11.4,1.4c1.9,0.3,3.5,0.6,4.9,1c7.3,1.8,14.2,2.5,21.6,4.5
				c39.1,10.7,64.1,17.4,75.1,20.1c13.8,3.4,29.7,6.2,47.6,8.4c10.8,1.3,22.8,1,36-0.9c1.3-0.2,2.6-0.4,3.9-0.6
				c15.1-2.5,28.2-9.6,34.5-23.1c0.2-0.6,1.2-0.4,1.2,0.3c0.4,23.5-22.5,38.6-43.9,42c-7.8,1.2-19.8,1.4-36.1,0.5
				c-1.2-0.1-2.4-0.2-3.5-0.3c-8-0.9-14.3-3-22.7-4.4c-1.9-0.4-5.4-1.3-10.3-2.8c-16-4.8-33-10.2-51-16.1
				c-16.9-5.6-36.1-9.8-57.6-12.6c-30.3-3.9-85.4-1-99.8,33c-0.9,2.1-0.9,4.2-0.9,6.2c0,0.8,0,1.6,0,2.3
				C453.8,485.3,452.5,485.5,452.1,484.6z"/>
			<path class="st0" d="M880,553.4c2.3-2.1,4.6-3.9,7.1-5.6c2-1.3,2.7-3.6,4.1-4.3c1.7-0.8,3.4,1.2,2.4,2.8
				c-1.5,2.1-2.9,3.6-4.4,4.3l-11.1,7.6c-3.6,2.7-7.6,4.9-11.9,6.4c-2,1.7-4.2,2.6-6.7,2.9c-1,0.5-1.4,1.2-1.1,2.1
				c2,8.5,1.5,17.6-1.3,25.7c-4.2,12.3-13.8,22.2-27.9,24.3c-10.7,2.6-17.3,0.7-27.3-4.1c-4.7-2.3-6.9-6.8-6.8-13.7
				c0.2-13.3,10.4-18.1,22.2-23.1c5.5-2.3,11.1-4.3,17-6c1.2-1.3,1.4-3,0.6-5.2c-2.4-6-5.2-14-8.3-24.1c-0.1-0.2-0.2-0.4-0.3-0.5
				c-0.7-0.5-1.5-0.4-2.2,0.3l-6.4,8.8c-0.5,1.3-1.2,2.1-2.1,2.5l-2.3-1.6l9.9-13.9c1-1.4,1.4-3.2,1.2-5c-2.1-14.1-2.4-31.4,6.4-43
				c2.3-3,5.2-5.6,8.8-7.7c1.9-1.1,4.2-1.3,7-0.7c2.3-0.4,4.7-0.3,7.1,0.3c0.8,0.1,1.4,0.6,1.8,1.2c7.6,10.3-7.7,31-13.8,39.2
				c-1,1.6-1.5,2.9-0.7,4.8c0.4,0.9,0.8,1.9,1.2,2.8c4.2,9.7,8.4,19.4,12.6,29.1c0.6,1.4,1.8,2.7,3.5,4c1.7-1.3,3.6-2.3,5.7-2.8
				l16-8.1V553.4z M846.2,510.3c4.3-6.3,8.2-12,7.1-21.5c-0.2-1.6-1.1-2.6-2.7-2.9c-3.8-0.7-6.8,1.2-9.1,5.9
				c-4.7,8.5-6.1,17.2-4.1,26.2c0.3,1.5,0.8,2.3,1.5,2.4c0.5,0.1,1.1-0.2,1.7-0.8C842.3,516.1,844.3,513.2,846.2,510.3z M829.3,612
				c7.7-8.3,10.5-18.7,8.4-31c-0.3-2-1.1-3.7-2.3-5.1c-2.8,1.5-7.1,3.4-12.9,5.8c-10.5,4.4-24,17.9-15,30.3
				C812.9,619.5,823,616,829.3,612z"/>
			<path class="st0" d="M814,557c-3.3,5-9.6,13.9-19.1,26.8c-6.1,8.3-12.7,15.3-19.9,21l-2.2-1.7c1.4-1,2.7-2.3,3.9-3.8
				c9.9-12,19.6-24,29.2-36.1l7.4-10.4l2.3,1.6C815.4,555.6,814.9,556.5,814,557z"/>
			<path class="st0" d="M348.7,540.5c-3.4,6-6.9,11.8-10.6,17.4c-3.7,5.6-7.6,11-11.7,16.1c-1,1.3-3.1,0.7-3.3-0.9
				c-0.2-1.1,0.2-2,1.3-2.6c0.2-0.1,0.4-0.2,0.5-0.3l16.3-23.5c0.1-0.6,0.4-1.1,0.9-1.5c0.4-0.6,0.8-1.1,1.3-1.5
				c0.2-1.3,0.8-2.3,1.8-3.1l10.3-17.8l2.6,1.5L348.7,540.5z"/>
			<path class="st0" d="M461.3,594.1l7.9-10.4c4.8-7.1,9.3-14.3,13.3-21.8s7.7-15.1,10.9-22.9c1.1-2.9,1.8-7.9,1.9-15.2
				c-0.1-3.5-1.2-6.4-3.1-8.6c-4.6-3.8-8.9-5.1-13-3.9c-7.7,2.3-14.4,7.2-20.3,14.7c-13.3,17.1-21,36.1-23.1,57.2
				c-0.2,1.8-0.3,3.9-0.3,6.1c0,5.8,1.1,12.2,5.2,14.6c2.6,1.5,5.1,1.4,7.6-0.1c4.1-2.7,8.2-5.6,12.2-8.7
				C460.6,594.6,460.9,594.3,461.3,594.1z M359.6,512c1.6,0.3,3.5-3.2,4.4-7.8c0.9-4.7,0.4-8.6-1.2-8.9c-1.5-0.3-3.5,3.2-4.4,7.8
				S358.1,511.7,359.6,512z M358.1,524.3l-2.6-1.5l0.2-0.3c-10.4-8-11.3-23.1-0.4-30.7c3.7-2.5,7.5-2.3,11.6,0.7
				c0.3,0.2,0.6,0.5,0.7,0.8c0.2,0.3,0.3,0.7,0.4,1.1c0.8,7.1-0.9,11.3-2.8,15.9c-0.4,1-0.9,2.1-1.3,3.2c-0.7,1.7,0.3,3.7,2.2,4.1
				c13.5,2.9,25.3,1.2,35.4-5.2c0.8-0.5,1.9-0.3,2.5,0.5c1.3,1.6,2.7,3.5,4.2,5.7c2,2.8,0.3,4.7-1.3,6.7c-0.5,0.6-1.1,1.2-1.5,1.9
				c-11.3,19.1-20.2,35.6-26.9,49.5c-2.8,5.8-7.9,16.7-6.8,24.4c0.5,3.6,2.3,6.5,6.3,7.8c1.9,0.3,3.6,0.1,5.1-0.4
				c6.7-4.7,12.9-10.3,18.4-16.7c0.9-0.7,1.7-1.6,2.4-2.8l9.7-16.9c0.5-0.8,0.8-1.6,1.1-2.5c8.7-27.9,25.2-50.5,51.9-61.4
				c0.3-0.1,0.6-0.2,0.9-0.3c0.3-0.1,0.6-0.1,1-0.2c7-1.1,18.8-1.4,24.7,4.5c3.5,2.7,5.3,5.7,5.2,8.8c0.7,1,1.3,1.5,1.9,1.4
				c0.6-0.1,1.2-0.7,1.6-2c1.7-4.7,2.9-8.1,3.6-10.3c0.6-2,2.4-3.3,4.5-3.3h14.7c1.7,0,2.8,1.7,2.2,3.2
				c-12.8,31-21.1,51.2-24.9,60.8c-1.2,2.9-1.9,4.8-2.3,5.7c-0.1,0.2-0.1,0.3-0.2,0.5c-2,5.1-5.9,15.1-5.3,22.3
				c0.2,2.7,1.3,4.9,3.4,6.4c5.1,1.4,9.8,0.1,13.9-3.8l4.2-3.9c10.7-12.1,20.2-24.9,28.3-38.3c5.8-8.8,10.5-17.8,14.3-27.1
				c1.6-4,3.1-8,4.4-12.1c1.1-3.5,0.1-6.5-2.8-9.1c-7.6-1-11.3,4.5-14.9,9.7c-0.1,0.2-0.3,0.4-0.4,0.6l-0.8,0.9
				c-0.4,0.4-1.1,0.1-1.1-0.5l0.2-2.3c2.6-5.6,7.3-10,14.2-13.2c6.7-2.1,12.1-2.8,16.2-2.2c2.7,0.4,4.9,1.4,6.5,2.9
				c2.2,2.2,3.3,5.6,3.3,10.1c0,3.9-0.9,8.5-2.8,13.7c-1.4,4.1-3.2,8.4-5.3,13.1c-0.1,0.3,0,0.5,0.2,0.7c0.3,0.1,0.5,0,0.7-0.1
				l4.6-5.5c4.2-7.1,9.4-13.7,15.7-19.8c6.2-7.4,14.1-12.3,23.8-14.8c8.2-2.1,14.8,0,19.9,6.3c0.2,0.3,0.4,0.6,0.6,1
				c0.2,0.3,0.2,0.7,0.3,1.1c0.9,6.1,0.8,11-0.1,14.6c-2.4,9.4-6.6,19-11.5,28.9c-5.9,11.7-10.9,22.7-15.1,32.9
				c-1.1,2.9-2.5,8-2.3,12c0.1,1.6,0.4,3.1,1.1,4.2c0.4,0.7,1.1,1.2,1.9,1.4c5,1.2,10.2-2.6,13.7-6.3c8.9-9.4,16.2-19.6,22.1-30.6
				c0.4-0.8,0.7-1.6,0.9-2.5c2.9-14.5,8.3-26.7,16.2-36.6c7.9-9.9,18.2-17.4,31-22.6c8.1-3.3,17.4-3.9,27.8-1.9
				c17.4,3.3,17,24.6,6.3,35.3c-4.8,4.8-11.5,7.5-19.6,5.6c-2.3-0.5-3.8-2.2-4.3-5c-0.4-1.8,0.8-3.6,2.6-4
				c8.3-1.7,13.9-6.5,16.7-14.6c2.3-6.6,0.7-11.5-4.9-14.7l-6.3-0.5c-8.2,2.3-15.5,6.5-22,12.7c-3.4,4.4-6.4,8.8-9,13.3
				c-8.5,14.6-13.1,29.9-12.4,48.2c0.9,20.6,18.9,28.8,36.3,19.5c7.1-3.9,13.4-8.8,19-14.8c8.8-9.5,18.5-25.7,25.9-41.1
				c0.7-1.4,1.3-2.7,1.9-4c5.9-12.3,9.2-19.2,9.8-20.6c0.9-2.3,1.2-5,0.7-8.3c-0.9-2.5-2.8-3.2-5.8-2.2c-3.5,1.2-6.1,4.1-8,8.6
				c-0.3,0.7-1.2,0.9-1.7,0.5l-0.2-0.1c-0.6-0.5-0.8-1.5-0.5-2.2c3.3-6.5,8.5-10.6,15.6-12.2c2.3-1.1,4.6-1.8,6.9-1.9
				c3.6-0.2,7.2,0.8,10.9,2.9c6.1,3.4,3.8,14.7,1.6,19.4c-8.2,17.4-16.2,34.3-23.9,50.7c-1.2,2.4-2.3,5.3-3.3,8.6
				c-0.2,0.6-0.4,1.1-0.6,1.7c-0.2,0.6-0.4,1.1-0.6,1.7c-2.1,5.8-4.3,11.8,0.4,17c5.8,0.9,10.7-0.1,14.8-3l2.2,1.7
				c-4.3,3.4-8.8,6.3-13.5,8.8c-3.4,1.4-6.6,2.1-9.8,2.1c-1.8,0-3.5-0.2-5.2-0.7c-9-2.2-12.4-9.5-11.2-18.3
				c0.6-4.3,1.9-8.6,3.8-13.1v-0.1l-0.4-0.7c-0.3-0.3-0.8-0.3-1,0.1c-0.7,1.2-1.6,2.1-2.7,2.7l-7.5,9.2
				c-9.8,11.3-24.6,19.4-39.4,20.3c-5.4,0.4-10.7-0.2-15.8-1.9c-13-4.3-20.1-14.9-21.3-31.8c-0.1-1.1-1.5-1.4-2-0.5
				c-5.4,9.9-12.1,18.5-20.2,25.8c-5.3,4.8-12.1,8.6-19,9.3c-4.2,0.4-8.5-0.4-12.5-2.8c-10.6-6.4-5.1-26.3-0.5-35.4
				c8.5-16.7,15.8-32.4,22-47c1.9-4.4,2.8-8.6,2.8-12.7c-0.1-4.5-2.2-6.8-6.5-7.1l-6.6,2.7l-11.1,9.1l-15.1,19.3
				c-3,5.3-6,10.5-9.1,15.7c-9.5,16.1-17.3,33.1-23.3,50.9c-0.7,2.1-1.3,3.6-1.6,4.3c-0.4,1-1.4,1.6-2.4,1.6h-19
				c-0.7,0-1.3-0.7-1-1.5l7.3-18.6l12.2-30.8c-7.1,14.3-16.7,27-28.6,37.9c-4.9,4.5-9.5,7.9-13.9,10.4c-3.8,2.5-8.3,3.9-12.7,3.9
				c-4.2,0-8.4-1.3-11.7-4.3c-7.7-6.6-5-21.8-1.2-30c0.2-0.5-0.3-1-0.9-0.7c-1.3,0.6-2.5,1.9-3.5,3.9l-12.6,15
				c-5.3,7.2-14.1,13.8-23.1,15.4c-5.1,0.9-10.2,0.1-15-3c-8.1-5.4-10.6-17.9-9.4-27.2c0.1-0.9-1.1-1.3-1.6-0.6l-2.9,3.5
				c-0.9,2-2.1,3.7-3.6,5.1c-4.3,8.5-10.6,14.8-18.9,18.9c-3.3,2.5-7.3,4.3-11.8,5.3c-8.1,1.2-14.1,0-18.1-3.5
				c-3.8-3.4-5.8-8.9-5.8-16.5c0-1.3,0.1-2.6,0.3-4.1c0.7-4.3,2.3-9.5,5-15.4c7.8-17.5,17.2-33.1,27.9-48.7c0.3-0.5,0-1.2-0.6-1.2
				l-15-1.1l-5.2-1.9C360.8,524.1,359.3,524,358.1,524.3z"/>
			<path class="st0" d="M449.6,420.1c-9.6,12.7-22.3,19.4-37.5,23.4c-5.5,1.5-12.3,2.4-20.2,2.7c-16.8,0.6-31.8-0.5-45-3.4
				c-1.4-0.3-2.9,0.1-3.9,1.2c-7.7,7.5-13.5,16.2-17.4,26.2c-6.3,16.2-11.5,32.6-15.8,49.2c-0.1,0.6,0.3,1.2,0.9,1.2l6.6,0.2
				l8.1,0.3c2.4,0.6,4.7,0.4,7-0.5c0.9-0.6,1.6-0.9,2.2-0.8c0.4,0,0.6,0.2,0.8,0.4c0.3,0.3,0.3,0.8,0.2,1.4
				c-0.2,0.9-0.8,1.7-1.7,2.3l-1.5,1.5c-0.2,0.5-0.5,0.9-1,1.1c-5.1,5.5-14.3,6-21.6,6.6c-0.6,0-1.1,0.1-1.6,0.2
				c-1.6,0.2-2.9,1.3-3.3,2.9c-0.6,2.4-1.3,5.4-2.1,9.1c-0.5,2.1-3.6,11.9-9.3,29.3c-4.3,13.3-9.8,26.4-16.5,39.1
				c-10.7,20.5-26.4,39-48.3,47.7c-5.5,2.2-10.2,3.6-14.2,4.3c-1.3,0.2-2.6,0.4-3.7,0.4c-11.9,0.7-22.6,0.3-34.6-5.7
				c-18-9-27.5-26.2-27.5-46.5c0.1-3.9,1.5-9.6,4.2-17.1c3.3-9.1,10.1-16.1,20.2-20.9c5.5-2.6,10.9-3.7,16.1-3.2
				c5.6,0.5,11,2.8,16.3,6.9c0.6,0.5,0.2,1.5-0.6,1.4c-6.1-0.9-12-0.2-17.8,2.2c-3.3,1.3-6.6,3.2-9.9,5.6
				c-20.7,15.2-22.5,45.1-5.2,61.3c4.1,3.8,9.3,6.9,15.6,8.8c8.1,2.5,16.9,1.8,26.4-1.9c15.1-5.9,26.6-19.6,34.2-32.5
				c9.2-15.6,17.2-34.6,24.1-57.1c5.8-18.9,9.2-29.9,10.1-33c0.2-0.5-0.2-1-0.7-1c-10,0.4-19.5,1.9-27.2,8c-1.8,1.4-3.4,3-5,4.9
				c-0.4,0.6-1.3,0.2-1.2-0.5c3.7-16.9,21.1-23.5,36.4-24.5c0.7,0,1.3-0.5,1.4-1.2c2.4-8.6,5.1-17.3,8.3-25.8
				c7.9-20.8,19.2-40.2,37.7-53.3c0.6-0.5,0.4-1.4-0.3-1.6c-6.7-1.4-22.4-5.1-46.9-11.1c-9.5-2.4-21.5-4-31.6-5.6
				c-11.7-1.8-30.6-2.3-42.3,1.1c-1.1,0.3-2.1,0.7-3.1,1c-15.3,5.3-26.7,14.7-34,28.3c-4.2,7.8-5.7,17.7-4.5,29.6
				c0.4,3.4,1.9,6.9,3.2,10.2c0.4,1.1,0.8,2.2,1.2,3.3c0.1,0.2-0.1,0.5-0.3,0.6c-0.3,0.1-0.5,0-0.7-0.2c-4-7-7.2-16.1-7.2-24.7
				c0-3.8,0.6-7.4,2-10.8c0.1-0.6,0.4-1.1,0.7-1.5c-0.1-0.7,0-1.2,0.5-1.6c0.5-3.9,2.2-8,5.1-12.3c0.4-1.9,1.9-4.4,4.4-7.3
				c7-7.8,14.7-14.9,24.2-19.1c9.8-4.3,19-7.2,27.7-8.6c2.9-0.5,5.7-0.8,8.5-0.9c14.4-0.7,25.7-0.5,33.8,0.7
				c11,1.5,18.8,2.6,23.4,3.1c8.3,0.9,14.7,3.1,22.9,3.8c2.4,0.2,5.1,0.7,7.9,1.3c2.6,0.6,5.4,1.3,8.3,2.1c1.1,0.3,2.2,0.5,3.3,0.6
				c9.3,0.6,19,3.6,29.2,4.8c2.3,0.3,4.6,0.5,6.9,0.8c2.4,0.3,4.8,0.6,7.1,0.8c24.5,2.9,46.9,4.2,67.3-8.7
				C449.4,418.8,450.1,419.5,449.6,420.1z"/>
			<path class="st0" d="M861.6,571.9c1.3,8.6,0.5,16.9-2.1,24.2l-2.4-0.8c2.8-8.1,3.3-17.2,1.3-25.7c-0.3-0.9,0.1-1.6,1.1-2.1
				c2.5-0.3,4.7-1.2,6.7-2.9c4.3-1.5,8.3-3.7,11.9-6.4l11.1-7.6c1.5-0.7,2.9-2.2,4.4-4.3c1-1.6-0.7-3.6-2.4-2.8
				c-1.4,0.7-2.1,3-4.1,4.3c-2.5,1.7-4.8,3.5-7.1,5.6v-0.3l-16,8.1c-2.1,0.5-4,1.5-5.7,2.8c-1.7-1.3-2.9-2.6-3.5-4
				c-4.2-9.7-8.4-19.4-12.6-29.1l2.5-1.1l13,29.5c0.3,0.5,0.9,0.8,1.4,0.5c7.7-3.5,13.9-6.6,18.7-9.3c2.4-1.4,6.7-5,12.8-10.8
				c0.6-0.5,1.4-0.6,2-0.3c3.5,1.8,4.9,4.4,4.3,7.8c-0.2,0.8-0.6,1.6-1.2,2.2c-9.5,8.7-20.3,15.3-32.6,20
				C862.1,569.8,861.5,570.8,861.6,571.9z"/>
			<path class="st0" d="M860.9,486.7c0.4,0.9,0.4,4-0.1,9.2c-0.1,0.7-0.2,1.5-0.5,2.2c-4.1,9.8-9,18.2-14.8,25.3
				c-1.4,1.9-1.8,4.3-0.8,6.4l-2.5,1.1c-0.4-0.9-0.8-1.8-1.2-2.8c-0.8-1.9-0.3-3.2,0.7-4.8c6.1-8.2,21.4-28.9,13.8-39.2
				c-0.4-0.6-1-1.1-1.8-1.2c-2.4-0.6-4.8-0.7-7.1-0.3c-2.8-0.6-5.1-0.4-7,0.7c-3.6,2.1-6.5,4.7-8.8,7.7l-2.4-1.6
				c0.2-0.3,0.4-0.6,0.6-0.9C836.7,478.5,854.4,471.6,860.9,486.7z"/>
			<path class="st0" d="M847,490.5c-5.6,5.5-7.6,12.2-6.1,20.3c-0.1,0.4-0.1,0.6,0,0.7c0.1,0.1,0.3,0.1,0.7,0
				c4.5-6.1,7.4-12.5,8.7-19.1C850.7,490.4,848.4,489.2,847,490.5z M837.4,518c-2-9-0.6-17.7,4.1-26.2c2.3-4.7,5.3-6.6,9.1-5.9
				c1.6,0.3,2.5,1.3,2.7,2.9c1.1,9.5-2.8,15.2-7.1,21.5c-1.9,2.8-3.9,5.8-5.6,9.3c-0.7,0.7-1.2,0.9-1.7,0.8
				C838.2,520.3,837.7,519.5,837.4,518z"/>
			<path class="st0" d="M835.1,582.4c0-1.2-1.3-2-2.4-1.5c-9.9,4.2-19.6,8.2-23.4,18.2c-3.3,8.3,2.1,15.4,11,13.1
				C834.4,608.5,835.5,594.7,835.1,582.4z M837.7,581c2.1,12.3-0.7,22.7-8.4,31c-6.3,4-16.4,7.5-21.8,0c-9-12.4,4.5-25.9,15-30.3
				c5.8-2.4,10.1-4.3,12.9-5.8C836.6,577.3,837.4,579,837.7,581z"/>
			<path class="st0" d="M831.6,567.7l-5.6-18.3c-0.3-0.7-1.2-0.9-1.7-0.3l-23.1,32.2c-0.5,0.1-0.7,0.3-0.8,0.6
				c0,0.5,0.2,0.7,0.6,0.8c0.3,0.1,0.7-0.1,1.1-0.4l10.1-5.3l0.4-0.2l17.7-6.3C831.4,570.1,832,568.9,831.6,567.7z M751.8,615.7
				c3.1,0,6.4-0.7,9.8-2.1c4.7-2.4,9.2-5.4,13.5-8.8c7.2-5.7,13.8-12.7,19.9-21c9.5-12.9,15.8-21.8,19.1-26.8
				c0.9-0.5,1.4-1.4,1.6-2.5c0.9-0.4,1.6-1.2,2.1-2.5l6.4-8.8c0.7-0.7,1.5-0.8,2.2-0.3c0.1,0.1,0.2,0.3,0.3,0.5
				c3.1,10.1,5.9,18.1,8.3,24.1c0.8,2.2,0.6,3.9-0.6,5.2c-5.9,1.7-11.5,3.7-17,6c-11.8,5-22,9.8-22.2,23.1
				c-0.1,6.9,2.1,11.4,6.8,13.7c10,4.8,16.6,6.7,27.3,4.1c14.2-2.1,23.7-12.1,27.9-24.3l2.4,0.8c-6.9,19.5-26.2,32.2-49.9,26.5
				c-12.1-2.9-20.9-13-17.8-26l0.3-1.1c0.2-0.4-0.1-0.8-0.6-0.8c-0.2,0-0.5,0-0.8-0.1c-4.2,4.4-8.6,8.7-13.1,13
				c-7.6,7.2-16.3,10.7-25.9,10.6L751.8,615.7z"/>
			<path class="st0" d="M800.5,465.1c6.1,4.9,6.8,14.1,1.6,20.6c-5.1,6.5-14.3,7.8-20.4,2.9c-6.1-4.9-6.8-14.1-1.6-20.6
				C785.3,461.5,794.4,460.2,800.5,465.1z M798.6,485.2c5-4.4,5.7-11.7,1.6-16.3c-4-4.5-11.4-4.6-16.3-0.2c-5,4.5-5.7,11.8-1.7,16.3
				C786.3,489.6,793.6,489.6,798.6,485.2z"/>
			<path class="st0" d="M766.5,522c-0.6,1.4-3.9,8.2-9.8,20.6l-2.2-1.1c3.1-6.4,5.9-12.9,8.5-19.2c0.9-2.1,1.2-3.9,1-5.3
				c-0.3-1.9-2.7-2.5-3.8-1c-0.9,1.1-2.7,3.6-5.4,7.4c-1.6,2.3-5,2.3-6.7,0c-1.3-1.7-1.5-3.8-0.4-6.1c3.5-8.1,9.9-13.1,19.4-14.8
				c2.2-0.4,4.3-0.7,6.1-0.8l0.2,2.5c-2.3,0.1-4.6,0.8-6.9,1.9c-7.1,1.6-12.3,5.7-15.6,12.2c-0.3,0.7-0.1,1.7,0.5,2.2l0.2,0.1
				c0.5,0.4,1.4,0.2,1.7-0.5c1.9-4.5,4.5-7.4,8-8.6c3-1,4.9-0.3,5.8,2.2C767.7,517,767.4,519.7,766.5,522z"/>
			<path class="st0" d="M785.6,534.4c-7.1,13.9-15.3,31.6-24.6,53.3c-0.1,0.2-0.2,0.4-0.2,0.6l-2.5-0.8c0.2-0.6,0.4-1.2,0.6-1.7
				c1-3.3,2.1-6.2,3.3-8.6c7.7-16.4,15.7-33.3,23.9-50.7c2.2-4.7,4.5-16-1.6-19.4c-3.7-2.1-7.3-3.1-10.9-2.9l-0.2-2.5
				c2.8-0.2,5.1-0.1,7.1,0.4c10.6,2.5,13,12.5,9.8,21.8C789.1,527,787.6,530.5,785.6,534.4z"/>
			<path class="st0" d="M758.6,600.8c1.9,7.8,13.6-2.6,16.3-5.3c6-6.1,11.9-13.1,17.7-20.8c12.7-17.1,21.8-29.5,27.4-37.2
				c0.8-1.2,1.2-2.6,1-4.1c-1.9-16.1-2.2-30.8,7.5-44l2.4,1.6c-8.9,11.6-8.5,28.9-6.4,43c0.2,1.8-0.2,3.6-1.2,5l-9.9,13.9l-7.4,10.4
				c-9.6,12.1-19.3,24.1-29.2,36.1c-1.2,1.5-2.5,2.7-3.9,3.8c-4.1,3-9,4-14.8,3c-4.7-5.2-2.5-11.2-0.4-17c0.2-0.6,0.4-1.2,0.6-1.7
				l2.5,0.8C759.2,591.9,757.8,597.7,758.6,600.8z"/>
			<path class="st0" d="M673.6,520.5c14.7-13.8,34.1-21.1,53.8-17.3c10.1,2,16.2,10.4,15.8,21.1c-0.2,7.7-2.9,14-8.1,19.2l-2.3-1.5
				c10.6-10.8,11.1-32-6.3-35.3c-10.4-2-19.7-1.4-27.8,1.9c-12.8,5.2-23.1,12.7-31,22.6l-2-2C668.1,526.1,670.7,523.2,673.6,520.5z"
				/>
			<path class="st0" d="M740.1,460c-13.2,1.9-25.2,2.2-36,0.9c-17.9-2.2-33.8-5-47.6-8.4c-11-2.7-36-9.4-75.1-20.1
				c-7.4-2-14.3-2.7-21.6-4.5c-1.4-0.3-3-0.7-4.9-1l0.5-3c15.2,2.6,30.8,6.1,46.9,10.6c33.7,9.6,56.8,15.6,69.3,18
				c10.3,2,26,4.8,38,5.6c8.4,0.5,18.3,0.2,29.6-0.9c0.2,0,0.3,0,0.5-0.1L740.1,460z"/>
			<path class="st0" d="M695,521.4c6.5-6.2,13.8-10.4,22-12.7l6.3,0.5c5.6,3.2,7.2,8.1,4.9,14.7c-2.8,8.1-8.4,12.9-16.7,14.6
				c-1.8,0.4-3,2.2-2.6,4c0.5,2.8,2,4.5,4.3,5c8.1,2,14.9-0.8,19.6-5.6l2.3,1.5c-1.7,1.7-3.7,3.3-5.9,4.7c-6.2,4-17.7,5-22.3-2
				c-2.2-3.4-1.5-11.5,3.9-11.2c10.1,0.6,23.1-18,10.2-23.1c-0.8-0.4-1.6-0.4-2.5-0.2c-5.8,1.5-9.8,3-12,4.6
				c-7.6,5.4-13.7,12.1-18.3,19.8l-2.2-1.3C688.6,530.2,691.6,525.8,695,521.4z"/>
			<path class="st0" d="M699.7,479.1c16.3,0.9,28.3,0.7,36.1-0.5c21.4-3.4,44.3-18.5,43.9-42c0-0.7-1-0.9-1.2-0.3
				c-6.3,13.5-19.4,20.6-34.5,23.1c-1.3,0.2-2.6,0.4-3.9,0.6l-0.4-2.8c2.8-0.4,8.1-1.9,16-4.4c12.7-4.3,19.9-13.1,21.8-26.5
				c0.1-1.2,1.7-1.7,2.5-0.7c2.3,2.9,3.4,6.4,3.1,10.7c-1.8,32.2-32.2,46-61.3,46.4c-8.9,0.1-17.5-0.4-25.9-1.3l0.3-2.6
				C697.3,478.9,698.5,479,699.7,479.1z"/>
			<path class="st0" d="M688.2,615.1c14.8-1,29.6-9,39.4-20.3l7.5-9.2c1.1-0.6,2-1.5,2.7-2.7c0.2-0.4,0.7-0.4,1-0.1l0.4,0.7v0.1
				c-1.9,4.5-3.2,8.8-3.8,13.1c-1.2,8.8,2.2,16.1,11.2,18.3c1.7,0.4,3.4,0.7,5.2,0.7l0,2.5c-3.1,0-6.4-0.5-9.7-1.3
				c-0.9-0.2-2.6-1.4-4.9-3.6c-3.9-3.8-5.2-11.6-5.1-16.6c0-0.4-0.6-0.7-1-0.4c-8.4,8.2-19.8,16.7-31.1,19.6
				c-2.8,0.7-6.6,1.2-11.5,1.6L688.2,615.1z"/>
			<path class="st0" d="M709.9,602.5c-17.4,9.3-35.4,1.1-36.3-19.5c-0.8-18.3,3.8-33.7,12.4-48.2l2.2,1.3c-7,11.5-10.7,25-11.7,38.7
				c-0.8,10.6,1.2,23.3,11.6,27.5c10.5,4.2,24.4-3.2,32.3-10.8c14.6-14,25.4-31.7,34.2-50l2.2,1.1c-0.6,1.3-1.2,2.6-1.9,4
				c-7.4,15.4-17.1,31.6-25.9,41.1C723.3,593.7,717,598.6,709.9,602.5z"/>
			<path class="st0" d="M651.1,581.4c1.2,16.9,8.3,27.5,21.3,31.8c5.1,1.7,10.5,2.3,15.8,1.9l0.2,2.3c-0.6,0.1-1.2,0.1-1.9,0.1
				c-18.9,0.9-31.4-8-37.6-26.7c-0.2-0.5-0.8-0.7-1.3-0.4c-0.6,0.3-1.1,0.8-1.5,1.3c-10.4,14.4-19.3,24.8-36,26.4l-0.2-2.2
				c6.9-0.7,13.7-4.4,19-9.3c8.1-7.3,14.8-15.9,20.2-25.8C649.6,580,651,580.3,651.1,581.4z"/>
			<path class="st0" d="M628.5,600.8c-3.5,3.7-8.7,7.5-13.7,6.3c-0.8-0.2-1.5-0.7-1.9-1.4c-0.7-1.1-1-2.5-1.1-4.2l2.2-0.2
				c0,1.3,0.9,2.5,2.2,2.8c8.9,2.8,28.3-29.2,31.6-35.6c0.3-0.6,0.5-1.2,0.6-1.8c2.9-14.4,8.7-27,17.3-37.7l2,2
				c-7.9,9.9-13.3,22.1-16.2,36.6c-0.2,0.9-0.5,1.7-0.9,2.5C644.7,581.2,637.4,591.4,628.5,600.8z"/>
			<path class="st0" d="M614.1,589.5c4.2-10.2,9.2-21.2,15.1-32.9c4.9-9.9,9.1-19.5,11.5-28.9c0.9-3.6,1-8.5,0.1-14.6
				c0-0.4-0.1-0.8-0.3-1.1l2.5-0.5c0.2,0.3,0.3,0.6,0.5,1c4,9-1.9,23.6-7,34.8c-3.7,8.2-8.8,19.2-15.5,32.9
				c-3.1,6.5-5.4,13.3-6.9,20.6c0,0.2-0.1,0.4-0.1,0.6l-2.2,0.2C611.6,597.5,613,592.4,614.1,589.5z"/>
			<path class="st0" d="M585.3,524.1c0.1,0.3,0.1,0.5,0.2,0.6c0.1,0.2,0.3,0.2,0.4,0.1c0.3-0.3,0.5-0.4,0.7-0.3
				c11.9-14.7,28.1-28.1,48.3-21.6c3.1,1,5.8,3.9,8.1,8.6l-2.5,0.5c-0.2-0.4-0.3-0.7-0.6-1c-5.1-6.3-11.7-8.4-19.9-6.3
				c-9.7,2.5-17.6,7.4-23.8,14.8c-6.3,6.1-11.5,12.7-15.7,19.8l-4.6,5.5c-0.2,0.1-0.4,0.2-0.7,0.1c-0.2-0.2-0.3-0.4-0.2-0.7
				c2.1-4.7,3.9-9,5.3-13.1c1.9-5.2,2.8-9.8,2.8-13.7c0-4.5-1.1-7.9-3.3-10.1c-1.6-1.6-3.8-2.5-6.5-2.9l0.5-2.9
				c3.9,0.7,7.3,2.3,9.8,5.4C587.3,511.6,587.9,517.4,585.3,524.1z"/>
			<path class="st0" d="M562.7,520.5c-1.3,4.1-2.7,8.1-4.4,12.1l-2.6-1c0.9-2.2,1.9-5,3.1-8.3c0.9-2.7,1.2-4.5,0.9-5.6
				c-0.6-2.6-3.7-3.7-5.8-2c-2.9,2.3-5.3,5.4-7.1,9.3c-1.2,2.3-4.3,3-6.2,1.2l-0.3-0.2c-1.9-1.7-2.5-4.5-1.3-6.9
				c4.4-8.5,10.9-13.9,19.5-16.3c4.8-1.4,10.3-2,15.2-1.2l-0.5,2.9c-4.1-0.6-9.5,0.1-16.2,2.2c-6.9,3.2-11.6,7.6-14.2,13.2l-0.2,2.3
				c0,0.6,0.7,0.9,1.1,0.5l0.8-0.9c0.1-0.2,0.3-0.4,0.4-0.6c3.6-5.2,7.3-10.7,14.9-9.7C562.8,514,563.8,517,562.7,520.5z"/>
			<path class="st0" d="M548.4,613c0.3-0.7,0.9-2.2,1.6-4.3c6-17.8,13.8-34.8,23.3-50.9c3.1-5.2,6.1-10.4,9.1-15.7l15.1-19.3
				l11.1-9.1l6.6-2.7c4.3,0.3,6.4,2.6,6.5,7.1c0,4.1-0.9,8.3-2.8,12.7c-6.2,14.6-13.5,30.3-22,47c-4.6,9.1-10.1,29,0.5,35.4
				c4,2.4,8.3,3.2,12.5,2.8l0.2,2.2c-0.1,0-0.2,0-0.3,0c-26.2,2.3-24-24-16.3-40c12.7-26.2,19.2-39.6,19.5-40.3
				c3-6.8,4.9-13.1,5.8-18.9c0.2-1.6-0.8-3.1-2.3-3.4c-6-1.5-15,7.3-19.9,13.3c-20.8,25.5-36.1,54.2-45.9,86
				c-0.4,1.4-1.6,2.3-3.1,2.3h-23.7c-1.3,0-2.2-1.3-1.7-2.5l8.9-20.5c0.1-0.2,0.2-0.3,0.3-0.5l1.9,0.8l-7.3,18.6
				c-0.3,0.8,0.3,1.5,1,1.5h19C547,614.6,548,614,548.4,613z"/>
			<path class="st0" d="M531.8,506.3c-8.6,20.6-17.7,42.4-27.3,65.5l-2.6-1.1c3.8-9.5,12.2-29.8,24.9-60.8c0.6-1.5-0.5-3.2-2.2-3.2
				H510c-2.1,0-3.9,1.3-4.5,3.3l-2.7-0.9l1.1-3.3c0.6-1.8,2.2-2.9,4-2.9h21.7C531.3,503,532.5,504.7,531.8,506.3z"/>
			<path class="st0" d="M504.3,572.4c-1.4,3.4-1.9,6.6-3.5,9.8c-2.6,5.4-3.8,11.1-3.6,17.1c0.1,1.7,0.8,2.7,2.2,3.1
				c4.7,1.3,11.2-4.2,14.3-7.6c14.1-15.3,27.4-35,40.1-59c0.6-1.1,1.2-2.5,1.9-4.3l2.6,1c-3.8,9.3-8.6,18.3-14.3,27.1
				c-8.1,13.4-17.6,26.2-28.3,38.3l-4.2,3.9c-4.1,3.9-8.8,5.2-13.9,3.8c-2.1-1.5-3.2-3.7-3.4-6.4c-0.6-7.1,3.3-17.2,5.3-22.3
				c0.1-0.2,0.1-0.4,0.2-0.5c0.3-0.9,1.1-2.8,2.3-5.7l2.6,1.1C504.5,572,504.4,572.2,504.3,572.4z"/>
			<path class="st0" d="M508.9,612.8c-5.2,3.7-11.4,5.5-18.6,5.4l0-2.3c4.4,0,8.9-1.4,12.7-3.9c4.4-2.5,9-5.9,13.9-10.4
				c11.9-10.9,21.5-23.6,28.6-37.9l-12.2,30.8l-1.9-0.8c0.1-0.2,0.1-0.5,0.1-0.7c-0.1-0.8-1.5-1.1-1.4,0c-0.1-0.1-0.2-0.1-0.3-0.1
				c-0.2,0-0.5,0.2-0.8,0.5C523.3,600.9,516.6,607.4,508.9,612.8z"/>
			<path class="st0" d="M466.9,505.6c2.8-0.8,5.6-1.4,8.5-1.8c8.5-1.2,20.5,2,24.2,10.8c0.3,0.6,1.1,0.6,1.3,0l1.9-5.4l2.7,0.9
				c-0.7,2.2-1.9,5.6-3.6,10.3c-0.5,1.3-1,1.9-1.6,2c-0.6,0.1-1.2-0.4-1.9-1.4c0.1-3.1-1.7-6.1-5.2-8.8c-5.9-5.9-17.7-5.6-24.7-4.5
				c-0.3,0-0.7,0.1-1,0.2L466.9,505.6z"/>
			<path class="st0" d="M472.8,458.8c-10.1,6.2-15.6,14.8-16.5,25.8l-2.4-0.2c0.1-0.7,0.1-1.5,0-2.3c0-1.9-0.1-4.1,0.9-6.2
				c14.4-34,69.5-36.9,99.8-33c21.5,2.8,40.7,7,57.6,12.6c18,5.9,35,11.3,51,16.1c4.9,1.5,8.4,2.4,10.3,2.8
				c8.4,1.4,14.7,3.5,22.7,4.4l-0.3,2.6c-9.4-1.1-18.5-2.9-27.4-5.4c-16.5-4.6-31.7-9.5-52.8-16.4c-4.5-1.5-14.6-4.3-30.3-8.4
				c-6.6-1.7-11.9-1.7-17.7-3.3c-1.5-0.5-3.9-0.9-7.1-1.3C530.6,442.9,498.4,443.3,472.8,458.8z"/>
			<path class="st0" d="M451.8,412.8c2.1,0,3.4,2.5,2.4,4.8c-0.7,1.5-1.5,3.1-2.4,4.5l-2.2-2c0.5-0.6-0.2-1.3-0.9-0.9
				c-20.4,12.9-42.8,11.5-67.3,8.7l0.4-3c5.9,0.7,12,0.8,20.9,1.3c9.5,0.7,18.4,0,26.9-2c7.5-1.7,14.3-5.3,20.6-10.7
				C450.7,413,451.3,412.8,451.8,412.8z"/>
			<path class="st0" d="M437.2,615.2c9.1-1.5,17.9-8.2,23.1-15.4l12.6-15c1-2,2.2-3.3,3.5-3.9c0.6-0.3,1.1,0.2,0.9,0.7
				c-3.8,8.2-6.5,23.4,1.2,30c3.4,3,7.5,4.3,11.7,4.3l0,2.3c-1.3,0-2.7-0.1-4.1-0.2c-11.5-1.2-15.4-11.5-16-21.5
				c0-0.8-1-1.1-1.5-0.5c-8.7,10.2-18.1,19.5-31,21.7L437.2,615.2z"/>
			<path class="st0" d="M485.9,430c-18.7,6.3-30.3,18.7-34.9,37.4c-1.5,6.5-1.2,12.2,1.1,17.2c0.4,0.9,1.7,0.7,1.8-0.2l2.4,0.2
				c-0.1,1.9-0.2,3.8,0,5.8c0.1,1.6-1.8,2.6-3.1,1.6c-3.6-2.8-5.5-7-5.8-12.7c-1.8-32.4,23-51.2,52.7-56.4
				c15.3-2.7,32.2-2.6,50.7,0.3c1.5,0.2,3.1,0.5,4.6,0.8l-0.5,3c-3.1-0.5-6.9-1-11.4-1.4c-14.3-1.3-27.5-1.3-39.8,0
				C496.9,426.2,492.5,427.8,485.9,430z"/>
			<path class="st0" d="M440.5,599.7c0.4,0.6,0.9,1.1,1.5,1.3c5,2.1,11.6-4.2,14.9-7.8c8.8-9.6,16.5-20.4,22.9-32.4l2.7,1.1
				c-4,7.5-8.5,14.7-13.3,21.8l-7.9,10.4c-0.4,0.2-0.7,0.5-0.8,1c-4,3.1-8.1,6-12.2,8.7c-2.5,1.5-5,1.6-7.6,0.1
				c-4.1-2.4-5.2-8.8-5.2-14.6l2.4,0C437.9,593.3,438.7,596.7,440.5,599.7z"/>
			<path class="st0" d="M435.8,583.2c2.1-21.1,9.8-40.1,23.1-57.2c5.9-7.5,12.6-12.4,20.3-14.7c4.1-1.2,8.4,0.1,13,3.9
				c1.9,2.2,3,5.1,3.1,8.6c-0.1,7.3-0.8,12.3-1.9,15.2c-3.2,7.8-6.9,15.5-10.9,22.9l-2.7-1.1c3.9-7.2,7.3-14.8,10.4-22.8
				c1.9-4.9,2.4-9.7,1.7-14.2c-1.1-6.5-4.7-9.5-11-9.1c-9.6,0.6-19.9,12.4-24.8,19.8c-10.2,15.4-16.2,32.7-18.1,51.8
				c-0.1,1-0.1,2-0.1,3l-2.4,0C435.5,587.1,435.6,585,435.8,583.2z"/>
			<path class="st0" d="M453.3,641c-4.9,0.9-12.5,1.6-22.9,2.2l-0.1-2.3c4.8-0.3,9.5-0.8,14.4-1.7c5.7-1.1,10.4-1.7,14.1-2
				c0.9-0.1,1.9-0.8,3-2.2c0.3-0.5,0-1.2-0.5-1.3c-0.3,0-0.7,0-1.1,0.1l-0.4-2.2l14.7-2.7c2-0.4,3,2.2,1.4,3.3
				C469.5,636.5,462,639.4,453.3,641z"/>
			<path class="st0" d="M412.4,567.5c8-26.5,27.1-54,54.5-61.9l0.6,2.3c-0.3,0.1-0.6,0.2-0.9,0.3c-26.7,10.9-43.2,33.5-51.9,61.4
				c-0.3,0.9-0.6,1.7-1.1,2.5l-9.7,16.9c-0.7,1.2-1.5,2.1-2.4,2.8c-5.5,6.4-11.7,12-18.4,16.7c-1.5,0.5-3.2,0.7-5.1,0.4
				c-4-1.3-5.8-4.2-6.3-7.8l2.6-0.3c0.2,2.1,1.8,3.8,4,4c11.7,0.8,28-26.2,33.3-35.3C411.9,568.8,412.2,568.2,412.4,567.5z"/>
			<path class="st0" d="M381.8,424.9l-0.4,3c-2.4-0.3-4.7-0.5-7.1-0.8c-2.3-0.3-4.6-0.5-6.9-0.8c-10.2-1.2-19.9-4.2-29.2-4.8
				c-1.1-0.1-2.2-0.3-3.3-0.6c-2.9-0.9-5.7-1.6-8.3-2.1l0.6-2.7c5.5,1.2,10.7,1.6,19.2,3.2c7.3,1.5,11.8,2.3,13.5,2.5
				c7.7,0.9,12.2,1.5,13.6,1.8C376.4,424.2,379,424.6,381.8,424.9z"/>
			<path class="st0" d="M378.5,576.7c6.7-13.9,15.6-30.4,26.9-49.5c0.4-0.7,0.9-1.3,1.5-1.9c1.6-1.9,3.3-3.9,1.3-6.7
				c-1.5-2.2-2.9-4.1-4.2-5.7c-0.6-0.8-1.7-1-2.5-0.5c-10.1,6.4-21.9,8.1-35.4,5.2c-1.9-0.4-2.9-2.4-2.2-4.1
				c0.4-1.1,0.9-2.1,1.3-3.2c1.9-4.6,3.6-8.8,2.8-15.9c0-0.4-0.2-0.8-0.4-1.1l2.9-0.7c0.3,0.6,0.6,1.3,0.9,2
				c0.3,0.9,0.3,3.6-0.1,8.1c0,0.2,0,0.4-0.1,0.5l-3.3,9.7c-0.3,0.9,0.2,1.8,1.1,1.9c11.7,2.1,22.5,0.1,32.6-6.2
				c0.6-0.4,1.3-0.4,1.8,0c3.7,2.6,6.5,6.1,8.4,10.5c0.8,1.9,0.6,4.2-0.6,5.9c-13,18.9-24.1,39-33.4,60.4c-2,4.8-2.6,9-3.5,14.4
				c0,0.3,0,0.7,0,1l-2.6,0.3C370.6,593.4,375.7,582.5,378.5,576.7z"/>
			<path class="st0" d="M370.5,492.6l-2.9,0.7c-0.2-0.3-0.4-0.6-0.7-0.8c-4.1-3-7.9-3.2-11.6-0.7c-10.9,7.6-10,22.7,0.4,30.7
				l-0.2,0.3l-10.3,17.8c-1,0.8-1.6,1.8-1.8,3.1c-0.5,0.4-0.9,0.9-1.3,1.5c-0.5,0.4-0.8,0.9-0.9,1.5l-16.3,23.5
				c-0.1,0.1-0.3,0.2-0.5,0.3c-1.1,0.6-1.5,1.5-1.3,2.6c0.2,1.6,2.3,2.2,3.3,0.9c4.1-5.2,8-10.5,11.7-16.1l2.2,1.4l-10.4,15.9
				c-1.7,2.6-5,3.4-7.7,1.8l-0.4-0.2c-2.4-1.4-2.9-4.6-1.3-6.7c11.1-14.1,21.2-29.2,30.3-45.3c0.6-0.9,0.4-2.1-0.4-2.8
				c-6.4-6.1-8-13.9-4.7-23.5C349.2,488.1,364.5,480.7,370.5,492.6z"/>
			<path class="st0" d="M367.8,526.7l-0.5,2.5l-5.7-1.2c-0.5-0.1-0.9,0.1-1.1,0.4l-20.3,30.9l-2.2-1.4c3.7-5.6,7.3-11.4,10.6-17.4
				l9.4-16.2c1.2-0.3,2.7-0.2,4.5,0.5L367.8,526.7z"/>
			<path class="st0" d="M362.8,495.3c1.6,0.3,2.1,4.2,1.2,8.9c-0.9,4.6-2.8,8.1-4.4,7.8c-1.5-0.3-2.1-4.3-1.2-8.9
				S361.3,495,362.8,495.3z"/>
			<path class="st0" d="M383.4,529c-10.7,15.6-20.1,31.2-27.9,48.7c-2.6,6-4.3,11.1-5,15.4l-2.4-0.3c0.8-4.9,2.3-10,4.3-14.6
				c5.9-14.4,14.5-29.8,25.6-46.2c0.2-0.3,0-0.6-0.2-0.6l-10.5-2.2l0.5-2.5l15,1.1C383.4,527.8,383.7,528.5,383.4,529z"/>
			<path class="st0" d="M356,613.7c4,3.5,10,4.7,18.1,3.5c4.5-1,8.5-2.8,11.8-5.3c8.3-4.1,14.6-10.4,18.9-18.9
				c1.5-1.4,2.7-3.1,3.6-5.1l2.9-3.5c0.5-0.7,1.7-0.3,1.6,0.6c-1.2,9.3,1.3,21.8,9.4,27.2c4.7,3.1,9.9,3.8,15,3l0.4,2.5
				c-1.1,0.2-2.2,0.3-3.3,0.4c-13.9,1.2-21.8-9.3-24.3-21.7c-0.3-1.3-2-1.6-2.7-0.5c-8.6,12.2-22.2,25.5-38.5,24.9
				c-18.9-0.6-23-13.9-20.8-28l2.4,0.3c-0.2,1.4-0.3,2.8-0.3,4.1C350.3,604.8,352.2,610.3,356,613.7z"/>
			<path class="st0" d="M408.6,644.2c-26.7,1-80,3.5-76.6,43.8c0.1,1-0.8,1.7-1.6,1.3c-0.8-0.3-1.4-0.9-1.9-1.8
				c-1.4-2.6-2.4-5.3-3.1-8l1.7-0.4c0.1,0.5,0.6,0.9,1.1,1c0.6,0.1,1.2-0.3,1.3-0.9l2.3-8.1c0.1-0.3,0.2-0.7,0.4-1
				c7.6-13.9,20.9-20.7,35.9-24c12.5-2.8,25.3-4.3,38.3-4.6c3-0.1,5.8-0.1,8.6-0.1c5.3-0.1,10.3-0.1,15.3-0.4l0.1,2.3
				C424.1,643.6,416.9,643.9,408.6,644.2z"/>
			<path class="st0" d="M415.7,630.5c-29.9-4.5-74.3-4.6-87.8,29.9c-0.3,0.8-0.5,1.6-0.5,2.4l-0.4,16c0,0.1,0,0.2,0,0.2l-1.7,0.4
				c-4.1-15.4,2.1-31.9,15.6-41.2c22.8-15.8,50.8-14.4,77.3-10.5c10.7,1.6,21.4,3,32.1,4.3c0.4-0.2,1-0.2,1.8-0.1h0.3
				c2.7,0.5,5.1,0.3,7-0.4l0.2,0l0.4,2.2c-0.6,0.1-1.2,0.3-1.9,0.5c-1.7,0.5-3.8,1.1-5.6,0.9C442.7,634.3,430.4,632.7,415.7,630.5z"
				/>
			<path class="st0" d="M329.3,469.3c-6.3,14.9-11.4,30.8-15.4,47.6c-0.2,0.7,0.3,1.4,1.1,1.5c0.8,0.1,1.6,0.1,2.4,0.2l-0.1,2.2
				l-6.6-0.2c-0.6,0-1-0.6-0.9-1.2c4.3-16.6,9.5-33,15.8-49.2c3.9-10,9.7-18.7,17.4-26.2c1-1.1,2.5-1.5,3.9-1.2
				c13.2,2.9,28.2,4,45,3.4c7.9-0.3,14.7-1.2,20.2-2.7c15.2-4,27.9-10.7,37.5-23.4l2.2,2c-6.7,10.3-20,18.4-30.5,21.9
				c-8.3,2.8-17.8,5-27.4,5.5c-16.1,0.8-31.5-0.4-46-3.5c-1.4-0.3-2.9,0.1-3.9,1.2C337.7,453.6,332.8,461,329.3,469.3z"/>
			<path class="st0" d="M317.4,518.6c6.2,0.3,12.2-0.6,18-2.8c2.9-1.1,5.7,1.6,4.8,4.4l-0.1,0.2c-1.3,4.3-4.2,7.9-8.1,10.1
				c-6.5,3.7-13.9,5.5-22,5.3l-0.2-2.7c7.4-0.7,16.5-1.2,21.6-6.6c0.5-0.2,0.8-0.6,1-1.1l1.5-1.5c0.9-0.6,1.5-1.4,1.7-2.3
				c0.1-0.6,0-1.1-0.2-1.4c-0.2-0.2-0.4-0.3-0.8-0.4c-0.6-0.1-1.3,0.2-2.2,0.8c-2.3,0.9-4.6,1.1-7,0.5l-8.1-0.3L317.4,518.6z"/>
			<path class="st0" d="M284.6,521.3c-15.3,1-32.7,7.6-36.4,24.5c-0.1,0.7,0.8,1.1,1.2,0.5c1.6-1.9,3.2-3.5,5-4.9l2.1,1.6
				c-3,2.2-5.4,5.2-7.2,9.2c-0.7,1.7-3.1,1.5-3.6-0.2c-2.8-8.8,2.5-17.9,9.8-23.4c7.8-5.8,16.6-9.2,26.3-10.1c0.7,0,1.3-0.5,1.6-1.2
				c2.8-8.6,5.5-16.5,8.3-23.9l2.6,1c-3.2,8.5-5.9,17.2-8.3,25.8C285.9,520.8,285.3,521.3,284.6,521.3z"/>
			<path class="st0" d="M318.7,414.1c1.7,0.2,3.8,0.6,6.1,1.3c0.8,0.2,1.6,0.4,2.4,0.6l-0.6,2.7c-2.8-0.6-5.5-1-7.9-1.3
				c-8.2-0.7-14.6-2.9-22.9-3.8c-4.6-0.5-12.4-1.6-23.4-3.1c-8.1-1.2-19.4-1.4-33.8-0.7c-2.8,0.2-5.6,0.5-8.5,0.9l-0.4-2.5
				c13-2.1,23.8-2.7,32.3-1.8c17.3,1.9,27.3,3,30,3.2C300.2,410.3,309,413,318.7,414.1z"/>
			<path class="st0" d="M214.4,665.7c4-0.7,8.7-2.1,14.2-4.3c21.9-8.7,37.6-27.2,48.3-47.7c6.7-12.7,12.2-25.8,16.5-39.1
				c5.7-17.4,8.8-27.2,9.3-29.3c0.8-3.7,1.5-6.7,2.1-9.1c0.4-1.6,1.7-2.7,3.3-2.9c0.5-0.1,1.1-0.1,1.6-0.2l0.2,2.7
				c-1,0-1.9,0.6-2.2,1.6c-13,48.7-34.6,120.5-93,130.7L214.4,665.7z"/>
			<path class="st0" d="M284.8,428.3c24.5,6,40.2,9.7,46.9,11.1c0.7,0.2,0.9,1.1,0.3,1.6c-18.6,13.1-29.8,32.5-37.7,53.3l-2.6-1
				c4.7-12.3,9.9-23.2,16.8-33.6c3.4-5.1,8.2-10.6,14.4-16.3c1-0.7,1.4-1.2,1.3-1.6c-0.1-0.2-0.3-0.4-0.7-0.5
				c-1.9-0.9-4-1.7-6.1-2.2c-26.8-6.7-46.7-11-59.6-12.9c-15.5-2.3-30.3-2.4-44.2-0.3c-1.5,0.2-3.2,0.6-4.9,1.2l-0.9-2.4
				c1-0.4,2.1-0.7,3.1-1c11.7-3.4,30.6-2.9,42.3-1.1C263.3,424.3,275.3,425.9,284.8,428.3z"/>
			<path class="st0" d="M255.8,508.7c-12.1,8.5-26.9,13-41.5,12.4l0.1-2.3c7.2,0.4,15-1.8,22.1-3.8l0.1,0
				c7.2-1.9,14.2-5.6,20.9-11.3c9.1-7.5,13.6-16.9,13.5-28c-0.1-11.7-5.9-19.6-17.3-21.3c-0.9-0.1-1.4,1-0.8,1.6
				c2.5,2.4,4.2,5.4,5.1,9.1c2.9,11.1,0.9,21.3-5.9,30.8c-10.3,14.5-24.4,21.2-42.3,20.3c-1.8-0.1-3.6-0.4-5.5-0.9l0-2
				c3.3,0.5,6.8,0.6,10.3,0.4c18.5-1.3,31.6-10.2,39.5-26.9c0.3-0.5,0.5-1.1,0.6-1.7c2.7-10.9,3.1-21.6-6.4-28.9
				c-2.1-1.5-0.9-4.8,1.6-4.7c13.4,0.3,21.5,6.6,24.3,19.1c0.3,1.6,0.3,5-0.1,10.1C273.3,491.6,264.5,502.5,255.8,508.7z"/>
			<path class="st0" d="M205.4,579.6c-5.3-4.1-10.7-6.4-16.3-6.9l0.2-2.5c8.6,0.8,16.9,4.8,23,12.8c1,1.4-0.3,3.3-2,2.7
				c-6.2-2.1-13.1-2.3-20.6-0.7c-0.6,0.1-1.2,0.3-1.8,0.6l-0.9-2.4c5.8-2.3,11.8-3.1,17.8-2.2C205.6,581.1,206,580.1,205.4,579.6z"
				/>
			<path class="st0" d="M174,648.3c10,9.3,25.7,11.9,39.6,5.7c21.8-9.9,35-33.5,43.7-54.6c8.1-19.5,14.7-39.5,20-59.9
				c0.6-0.5,0.9-1,0.9-1.5c0-0.8-0.4-1.3-1.2-1.4c-0.6-0.1-1,0-1.1,0.5c-7.9,0.6-14.4,2.1-19.4,5.9l-2.1-1.6c7.7-6,17.2-7.5,27.2-8
				c0.5,0,0.9,0.5,0.7,1c-0.9,3.1-4.3,14.1-10.1,33c-6.9,22.5-14.9,41.5-24.1,57.1c-7.6,12.9-19.1,26.6-34.2,32.5
				c-9.5,3.7-18.3,4.4-26.4,1.9c-6.3-1.9-11.5-5-15.6-8.8L174,648.3z"/>
			<path class="st0" d="M173.8,453.1c7.3-13.6,18.6-23,34-28.3l0.9,2.4c-3.8,1.3-8.2,3.5-13.1,6.6c-15.7,9.7-23.5,23.9-23.5,42.4
				c0,5.7,1.1,10.9,3.1,15.5l-2.7,1.1c-1.3-3.4-2.9-6.8-3.2-10.2C168.1,470.8,169.6,460.9,173.8,453.1z"/>
			<path class="st0" d="M178.2,438.4c-2.5,2.9-4,5.4-4.4,7.3c-2.9,4.3-4.6,8.4-5.1,12.3c-0.5,0.4-0.6,0.9-0.5,1.6
				c-0.3,0.4-0.6,0.9-0.7,1.5c-1.4,3.3-2,7-2,10.8l-2.5,0c0.1-4.8,0.8-9.8,2.2-14.8c7.1-25.3,31.3-42.3,56.7-47.3
				c2.7-0.5,5.3-1,7.8-1.4l0.4,2.5c-8.7,1.4-17.9,4.3-27.7,8.6C192.9,423.5,185.2,430.6,178.2,438.4z"/>
			<path class="st0" d="M171.9,650.1c-17.3-16.2-15.5-46.1,5.2-61.3c3.2-2.4,6.5-4.3,9.9-5.6l0.9,2.4c-17.7,8.5-25.8,22.2-24.1,41.3
				c0.8,9,4.6,16.2,10.2,21.4L171.9,650.1z"/>
			<path class="st0" d="M165.5,471.9c0,8.6,3.2,17.7,7.2,24.7c0.2,0.2,0.4,0.3,0.7,0.2c0.2-0.1,0.4-0.4,0.3-0.6
				c-0.3-1.1-0.7-2.2-1.2-3.3l2.7-1.1c5.1,11.8,15.9,19.5,29.1,21.5l0,2c-0.2,0-0.3,0-0.4,0.2c-0.1,0.1,0,0.3,0.1,0.4
				c3.2,1.9,6.7,2.7,10.4,2.9l-0.1,2.3c-8.6-0.3-17.1-2.4-25-6.5c-17.4-8.8-26.5-24.8-26.3-42.8L165.5,471.9z"/>
			<path class="st0" d="M148.6,613.9c0,20.3,9.5,37.5,27.5,46.5c12,6,22.7,6.4,34.6,5.7c1.2,0,2.4-0.2,3.7-0.4l0.4,2.4
				c-1.1,0.2-2.2,0.4-3.3,0.5c-32.6,4.4-63-15.1-65.6-49.4c-0.7-9.5,1.6-19.2,6.9-29c7.4-13.6,22.4-21.3,36.5-20l-0.2,2.5
				c-5.2-0.5-10.6,0.6-16.1,3.2c-10.1,4.8-16.9,11.8-20.2,20.9C150.1,604.3,148.7,610,148.6,613.9z"/>
		</g>
		<g>
		</g>
	</g>
</g>
</svg>
